<?xml version="1.0" encoding="UTF-8"?>
<svg id="Layer_2" data-name="Layer 2" xmlns="http://www.w3.org/2000/svg" viewBox="0 0 849.73 810.66">
  <defs>
    <style>
      .cls-1 {
        fill: #f4f8f8;
      }

      .cls-2 {
        fill: #303b81;
      }

      .cls-3 {
        fill: #cfa86b;
      }

      .cls-4 {
        fill: #24305d;
      }

      .cls-5 {
        fill: #2d3d81;
      }
    </style>
  </defs>
  <g id="Color">
    <g>
      <g>
        <g>
          <path class="cls-5" d="m384.11,148.21l255.48-2.82-.03-2.14-255.63,2.82c.11.71.13,1.42.17,2.14Z"/>
          <path class="cls-5" d="m317.02,146.81l-97.18,1.07.03,2.14,94.1-1.04c.92-.82,1.94-1.55,3.05-2.17Z"/>
          <path class="cls-5" d="m351.33,205.06l346.07-2.99v-2.14s-346.13,2.99-346.13,2.99c.04.71.08,1.42.06,2.14Z"/>
          <path class="cls-5" d="m313.05,203.26l-149.07,1.3v2.14s149.07-1.3,149.07-1.3c-.03-.72-.03-1.42,0-2.14Z"/>
          <polygon class="cls-5" points="116.91 294.54 116.89 292.4 748.42 287.78 748.43 289.92 116.91 294.54"/>
          <polygon class="cls-5" points="156.71 592.03 156.7 589.88 711.38 585.26 711.39 587.4 156.71 592.03"/>
          <polygon class="cls-5" points="212.68 652.59 212.65 650.45 657.75 645.82 657.78 647.96 212.68 652.59"/>
          <path class="cls-5" d="m438.3,332.1c-.71.01-1.43.02-2.16.02l-.25-14.77-.04-1.98-.11-6.15-.31-17h0s-.04-2.15-.04-2.15l-.87-48.88-.65-36.84h0s-.04-2.14-.04-2.14l-.97-54.54-.05-2.14h0s-1.17-66.31-1.17-66.31h0s-.04-2.17-.04-2.17c.01-.01,0-.01,0-.01v-.18s-.01-.07-.01-.07v-.85s-.01-.38-.01-.38l-.02-1.05h1.09v-.02h1.06s.02,1.09.02,1.09v1.1s.01.01.01.01l.02,1.35,1.19,67.46h0s.05,2.15.05,2.15l.97,54.54h0s.04,2.14.04,2.14l.68,38.4.83,47.33.04,2.14.31,17.01.05,2.02v.02l.07,4.22.04,1.82.26,14.82Z"/>
          <path class="cls-5" d="m445.38,732.15l-1.07.02h-1.08s-.01-.6-.01-.6v-.64s-.06-2.78-.06-2.78l-.05-2.71-.66-36.86-.67-38.38-.03-2.13-.05-2.54-1-55.87-.03-2.15-.45-25.88-.32-18.05-.72-40.36c.71.02,1.43.05,2.16.06l.72,40.58.31,17.89.45,25.74.03,2.15.99,55.47.06,2.95.03,2.13.65,36.49.71,40.37.03,1.75v.95s.03,1.13.03,1.13l.02,1.29Z"/>
          <path class="cls-5" d="m569,308.78c-.71,0-1.42.01-2.15.05-1.08-7.01-1.35-8.36-2.8-15.26-.16-.77-.32-1.53-.49-2.3-.15-.72-.31-1.43-.48-2.13-3.62-16.36-8.29-32.41-14.03-48.16-.34-.92-.67-1.83-1.02-2.75-4.56-12.26-9.59-23.84-14.93-34.75-.35-.71-.7-1.42-1.06-2.12-4.74-9.56-9.73-18.59-14.84-27.08-5.89-9.84-11.95-18.96-17.98-27.34-.51-.72-1.02-1.43-1.53-2.12-27.68-37.98-54.45-60.61-62.91-67.33-.38-.29-.72-.56-1.02-.79h0c-.31-.24-.58-.45-.8-.63,0,0-.01-.01-.01,0-.07-.06-.13-.1-.19-.15-.12-.08-.21-.16-.3-.22h-.01s-.09-.08-.14-.12c-.16-.13-.26-.2-.28-.21l.63-.86h0s.32-.45.32-.45l.3-.42s.21.15.52.39h.01c.29.22.68.52,1.18.9.24.2.52.42.82.65h.01c.3.24.63.51.99.79,9.39,7.54,36.09,30.52,63.48,68.41.51.71,1.02,1.42,1.52,2.12,6,8.4,12.01,17.52,17.85,27.33,5.08,8.5,10.02,17.53,14.75,27.09.35.71.7,1.42,1.04,2.13,5.24,10.77,10.19,22.18,14.66,34.26.3.8.6,1.6.89,2.41,5.82,16.01,10.57,32.33,14.23,48.97.16.71.32,1.42.46,2.13.12.5.22,1,.32,1.5,1.51,7.16,1.84,8.78,2.94,16.04Z"/>
          <path class="cls-5" d="m548.1,524.93c.82-.27,1.66-.55,2.52-.85-3.26,10.34-6.84,20.72-10.77,31.16-3.91,10.46-8.16,20.98-12.74,31.54-.31.72-.63,1.43-.94,2.15-8.45,19.35-18.01,38.88-28.66,58.55-.37.71-.77,1.43-1.16,2.15-8.54,15.7-17.78,31.49-27.72,47.36-6.59,10.53-13.48,21.1-20.67,31.71-.05.07-.09.14-.15.21-.39.59-.8,1.18-1.21,1.77-.02.05-.06.09-.09.14-.02.05-.06.08-.08.13-.42.61-.84,1.22-1.25,1.83l-.87-.6-.88-.61c.15-.22.3-.43.44-.65.35-.5.68-1,1.02-1.5.15-.21.29-.42.43-.63.27-.38.52-.77.78-1.15,7.32-10.78,14.32-21.52,21-32.22,9.58-15.34,18.53-30.59,26.81-45.77.39-.72.79-1.44,1.17-2.15,10.68-19.68,20.27-39.2,28.76-58.55.31-.72.63-1.44.93-2.16,4.52-10.39,8.72-20.74,12.6-31.03,3.91-10.34,7.48-20.62,10.73-30.84Z"/>
          <path class="cls-4" d="m570.37,437.36c-.41,3.01-.85,6.02-1.33,9.04-1.17,7.51-2.54,15.07-4.1,22.66-.3-2.05-.6-4.14-.93-6.29,1.07-5.56,2.04-11.11,2.9-16.62.4-2.49.77-4.99,1.11-7.49.8-.41,1.57-.85,2.35-1.3Z"/>
          <path class="cls-5" d="m381.16,138.45c.43.72.79,1.47,1.13,2.24,26.71-41.72,50.69-65.02,51.11-65.41,0,0-25.64,21.88-52.24,63.17Z"/>
          <path class="cls-5" d="m331.12,248.12c-1.17,3.61-2.33,7.27-3.42,10.98-3.13,10.56-5.86,21.16-8.17,31.82-.15.72-.31,1.42-.46,2.14h0c-.32,1.5-.63,2.99-.92,4.49-.79,3.92-1.53,7.85-2.21,11.78-.58,3.29-1.12,6.6-1.61,9.92-.22,1.46-.44,2.94-.64,4.4-.68-.19-1.37-.38-2.08-.55.19-1.31.38-2.63.57-3.94.52-3.44,1.06-6.86,1.66-10.28.67-3.96,1.41-7.89,2.21-11.82.26-1.32.53-2.64.81-3.97.15-.71.31-1.42.47-2.14,2.35-10.91,5.14-21.76,8.34-32.54,1.13-3.85,2.34-7.64,3.55-11.39.63.38,1.2.79,1.89,1.11Z"/>
          <path class="cls-5" d="m443.29,731.51l-.07.06-1.62,1.25c-.46-.6-.93-1.21-1.38-1.81-2.94-3.84-5.81-7.68-8.63-11.53-1.51-2.02-2.99-4.05-4.44-6.08-6.02-8.31-11.81-16.62-17.36-24.94-8.4-12.54-16.28-25.12-23.64-37.69-.41-.71-.82-1.42-1.23-2.12-11.29-19.41-21.35-38.84-30.19-58.27-.32-.72-.65-1.43-.96-2.13-6.28-13.96-11.93-27.91-16.94-41.86-3.52-9.76-6.71-19.51-9.58-29.26.8.16,1.59.34,2.39.51,2.91,9.77,6.14,19.54,9.68,29.32h.01c4.97,13.75,10.57,27.51,16.8,41.27.31.71.64,1.42.96,2.13,8.88,19.43,18.98,38.86,30.3,58.27.42.71.82,1.42,1.25,2.12,7.09,12.08,14.66,24.14,22.7,36.18,6.91,10.36,14.18,20.71,21.79,31.05,1.47,2.02,2.98,4.04,4.5,6.06,1.72,2.31,3.47,4.61,5.22,6.91h.01c.12.16.23.31.36.48.02.03.05.06.07.09Z"/>
          <path class="cls-5" d="m748.42,288.77v-.45c-.06-.18-.12-.37-.19-.54-1.17-3.02-2.37-6.03-3.62-9.02-.34-.84-.71-1.69-1.06-2.51-.53-1.2-1.05-2.41-1.59-3.61-1.17-2.64-2.4-5.31-3.67-7.98-.34-.72-.67-1.43-1.03-2.15-.54-1.15-1.11-2.3-1.68-3.47-.61-1.22-1.23-2.43-1.85-3.65-.55-1.07-1.12-2.15-1.69-3.24-.01-.01-.01-.04-.04-.06-.39-.76-.78-1.5-1.18-2.24-46.91-87.02-132.4-151.15-234.02-170.41-14.45-2.74-29.21-4.57-44.24-5.42-.09,0-.2-.01-.31-.01-2.35-.15-4.72-.26-7.08-.34h-.04c-.08,0-.17-.01-.25-.01-.63-.02-1.3-.04-2-.05-.92-.04-1.82-.07-2.75-.08h-.02c-.78-.02-1.56-.04-2.34-.05h-.02c-1.69-.02-3.38-.04-5.08-.04-3.51,0-6.99.07-10.46.19-.4.01-.79.02-1.17.04s-.74.02-1.1.04c-.4.01-.8.02-1.19.04-.94.04-1.82.07-2.63.11-.4.02-.79.04-1.16.06-.37.01-.72.04-1.05.05-.58.02-1.16.06-1.75.09-.64.04-1.15.07-1.51.09-.32.02-.64.04-.96.06-.72.05-1.56.11-2.51.18-.7.05-1.44.11-2.26.18-.28.02-.57.05-.85.07-.61.05-1.22.09-1.82.15-1.26.12-2.63.25-4.1.39-.73.07-1.49.15-2.27.24-1.16.13-2.37.26-3.64.43-.43.05-.85.11-1.28.15-.63.07-1.25.14-1.88.22-2.41.31-4.97.65-7.67,1.05-.61.09-1.23.19-1.84.28-.78.12-1.55.24-2.33.37-18.03,2.93-35.59,7.27-52.53,12.9-.01,0-.08.02-.09.04-28.9,9.59-56.06,22.94-80.85,39.43-.01.01-.02.01-.04.02-.18.13-.37.25-.53.38-2.68,1.78-5.34,3.6-7.96,5.48-2.07,1.46-4.11,2.95-6.13,4.46-24.57,18.3-46.52,39.81-65.16,63.92h0c-.33.43-.64.83-.94,1.24v.09c-3.36,4.38-6.61,8.81-9.74,13.33,0,0-.06.08-.18.26-.12.15-.21.3-.31.45-.64.93-1.85,2.74-3.51,5.21-.17.25-.33.5-.51.76-.01.02-.02.04-.05.06-11.83,18.08-21.9,37.38-29.98,57.64-.79,1.96-1.56,3.94-2.3,5.93-2.35,6.2-4.51,12.5-6.47,18.88v.02c-.4,1.31-.79,2.63-1.18,3.94.85-.3,1.69-.57,2.49-.84.11-.35.21-.72.32-1.07,1.63-5.38,3.39-10.71,5.29-15.97.25-.68.5-1.37.77-2.05h0c.37-1.04.76-2.08,1.15-3.09.8-2.11,1.63-4.22,2.49-6.3,8.95-22.18,20.32-43.19,33.78-62.69,3.2-4.63,6.52-9.17,9.95-13.64.54-.72,1.09-1.43,1.65-2.15h.01c15.74-20.14,33.68-38.32,53.67-54.5h.01s.09-.01.09-.01c.9-.73,1.82-1.46,2.74-2.17,2.83-2.26,5.73-4.45,8.65-6.59,3.59-2.66,7.25-5.24,10.94-7.73,2.08-1.42,4.17-2.79,6.27-4.16,50.9-32.8,111.42-52.39,176.44-53.71,1.51-.04,3.02-.06,4.53-.07.51,0,1.02-.01,1.53-.01h1.5c.22,0,.43,0,.65.01.02-.01.05-.01.06,0h.01c.68-.01,1.33,0,2.01,0h.01c.8.01,1.61.02,2.4.04h.01c.44.01.86.01,1.28.02.06-.01.11,0,.15,0h.14c1.61.04,3.18.08,4.78.14h.02c1.65.06,3.33.13,4.98.21,9.92.48,19.74,1.39,29.42,2.73.02,0,.06,0,.08.01.05.01.08.01.12.02,7.24.97,14.43,2.17,21.52,3.64,19.95,4.05,39.28,9.85,57.77,17.23h.02c2.16.86,4.3,1.75,6.42,2.66,25.54,10.79,49.45,24.62,71.24,41.02.92.7,1.82,1.37,2.73,2.11h.04c20.78,15.96,39.59,34.27,55.99,54.55.6.7,1.17,1.42,1.71,2.13,3.05,3.8,6,7.66,8.87,11.61,2.1,2.9,4.16,5.84,6.17,8.81,5.93,8.75,11.44,17.78,16.51,27.08,6.71,12.29,12.63,25.05,17.7,38.22.28.71.54,1.42.81,2.13,13.37,35.35,20.66,73.57,20.66,113.4,0,54.11-13.46,105.2-37.27,150.23-5.79,10.94-12.18,21.52-19.15,31.7-.28.44-.58.86-.87,1.29v.05c-.21.28-.41.53-.6.8,0,0,0,.01-.01.01-14.89,21.42-32.32,41.03-51.84,58.41h-.01c-.8.73-1.62,1.45-2.44,2.16h-.01c-33.97,29.66-74.1,52.65-118.29,66.85h-.01c-.24.07-.47.15-.71.22-25.12,8.03-51.54,13.2-78.86,15.16h-.02c-2.36.18-4.71.32-7.08.43h-.01c-.12.01-.22.02-.34.02h-.04c-.33.02-.64.04-.97.05h-.01c-.68.04-1.36.07-2.03.09h-.01c-.09.01-.19.01-.27.01-.07,0-.13.01-.19,0-.32.02-.65.04-.97.05-.51.02-1,.04-1.49.05-.22.01-.44.02-.66.02-.13.01-.24.01-.35.01h-.01c-.87.02-1.75.05-2.63.07-2.43.05-4.88.08-7.33.08h-.21c-1.72,0-3.44-.01-5.16-.04-37.42-.55-73.34-7.15-106.85-18.86-.15-.05-.31-.09-.46-.15-38.67-13.53-74.08-33.86-104.7-59.48-.01-.01-.02-.02-.04-.04-.84-.7-1.66-1.39-2.49-2.09h-.01s-.02-.01-.02-.01c-2.34-2.03-4.64-4.04-6.93-6.13-.21-.19-.43-.38-.63-.58-17.19-15.58-32.73-32.92-46.28-51.73-.52-.71-1.03-1.42-1.52-2.13-.01,0-.01-.01-.01-.01-.93-1.31-1.84-2.61-2.75-3.93h0c-.65-.96-1.3-1.9-1.92-2.86-.18-.22-.25-.37-.25-.37-9.21-13.73-17.39-28.17-24.44-43.24-.35-.74-.7-1.5-1.04-2.24-6-13.03-11.13-26.53-15.36-40.41-.18,1.78-.37,3.59-.54,5.43,3.93,12.26,8.58,24.19,13.92,35.79.31.7.63,1.41.96,2.1,7.13,15.27,15.42,29.8,24.75,43.68,1.64,2.43,3.31,4.75,4.99,7.13.01,0,.01.01.01.01v.09s.01.01.01.02v.13c.18.27.38.55.58.81.71,1.02,1.44,2.02,2.17,3.02,12.42,16.97,26.44,32.75,41.83,47.1,0,.01.01.01.01.01,1.28,1.19,2.54,2.36,3.83,3.53.24.2.35.31.35.31,1.83,1.65,3.68,3.28,5.55,4.9.65.55,1.29,1.11,1.95,1.66,31.31,26.6,67.66,47.65,107.44,61.55,9.8,3.44,19.8,6.43,29.99,8.97.14.05.28.08.44.12,26.45,6.56,54.12,10.05,82.64,10.05,5.49,0,10.96-.13,16.39-.4.39-.01.77-.02,1.15-.05h.02c21.61-1.09,42.69-4.19,63.05-9.1.05-.01.09-.02.14-.04,8.21-1.98,16.31-4.26,24.25-6.81.2-.07.3-.11.3-.11,83.52-26.98,152.7-85.14,193.08-160.36,0,0,.02-.04.07-.12.02-.05.06-.09.09-.17.57-1.06,1.12-2.14,1.69-3.2,0,0,.01-.01.01-.02,23.42-44.92,36.65-95.75,36.65-149.54,0-40.43-7.47-78.73-21.13-114.56Z"/>
          <path class="cls-5" d="m636.32,248.04c.66-.27,1.38-.48,2.09-.68-24.23-40.11-55.55-73.15-83.45-97.71-55.44-48.81-109.49-75.83-110.03-76.1l-.94,1.92c.54.27,54.38,27.18,109.61,75.83,27.65,24.35,58.67,57.07,82.73,96.75Z"/>
          <path class="cls-5" d="m678.06,362.08c-2.74-28.7-10.56-55.47-21.51-80.12-.56.47-1.15.9-1.77,1.3,10.76,24.35,18.46,50.75,21.16,79.03,11.38,119.49-66.01,243.29-230.03,367.97l1.29,1.7c164.66-125.16,242.34-249.61,230.86-369.88Z"/>
          <path class="cls-5" d="m449.17,733.17l-.72-2.02c145.66-51.8,214.34-142.28,246.31-209.07,34.63-72.33,34.83-133.16,34.83-133.76h2.15c0,.6-.2,61.91-35.04,134.68-32.14,67.14-101.17,158.11-247.52,210.16Z"/>
          <path class="cls-4" d="m208.93,365.14c.44-5.63,1.11-11.58,2.1-17.82-.01,6.2-.01,12.4-.01,18.6v.08c-.92,12.08-.9,24.19,0,36.32v18.88c-2.84-18.74-3.54-37.44-2.09-56.06Z"/>
          <path class="cls-5" d="m301.48,180.97c-6.88,7.33-13.26,14.62-19.18,21.82-.2.24-.39.49-.6.73l-1.74,2.16c-2.89,3.58-5.65,7.15-8.31,10.68-18.24,24.29-31.29,47.65-40.52,69.36-.84,1.97-1.64,3.92-2.41,5.86-.06.16-.13.32-.2.48-.21.57-.43,1.13-.65,1.67-3.28,8.43-6,16.59-8.21,24.43-.7-.13-1.4-.27-2.12-.41,2.19-7.71,4.84-15.73,8.04-24.01.24-.65.5-1.3.77-1.96.02-.06.05-.12.08-.19.81-2.09,1.68-4.19,2.58-6.31,9.07-21.44,21.85-44.46,39.6-68.4,2.74-3.7,5.6-7.42,8.6-11.17.58-.72,1.16-1.44,1.74-2.17.84-1.02,1.67-2.05,2.53-3.07,5.86-7.11,12.18-14.28,18.98-21.51.31.68.65,1.36,1.04,2.01Z"/>
          <path class="cls-5" d="m450.79,731.07l-1.26,1.73c-.22-.16-.43-.31-.65-.48-.36-.27-.73-.53-1.09-.8-.32-.23-.66-.48-.99-.72h-.01c-.06-.05-.12-.09-.17-.13-.21-.15-.42-.3-.63-.46-.21-.15-.43-.31-.65-.48-.14-.1-.29-.21-.44-.32-.58-.42-1.15-.85-1.73-1.26-1.86-1.38-3.7-2.75-5.53-4.12-2.03-1.51-4.04-3.03-6.04-4.55-12.68-9.58-24.83-19.19-36.44-28.79-15.94-13.18-30.87-26.37-44.79-39.55-.74-.71-1.48-1.42-2.22-2.11-20.3-19.4-38.4-38.78-54.31-58.15-.58-.71-1.16-1.42-1.73-2.13-16.28-20.01-30.19-40-41.73-59.97-5.32-9.2-10.14-18.39-14.44-27.56.8.07,1.62.15,2.46.24,4.36,9.2,9.23,18.41,14.62,27.62h.01c11.58,19.85,25.52,39.73,41.81,59.64.58.72,1.16,1.43,1.75,2.13,16,19.36,34.21,38.75,54.63,58.13.74.71,1.49,1.4,2.24,2.11,14.01,13.21,29.06,26.43,45.13,39.64,9.19,7.55,18.7,15.11,28.56,22.66,1.98,1.53,3.98,3.05,5.99,4.57,3.29,2.48,6.62,4.98,9.99,7.46.72.55,1.44,1.08,2.17,1.6.27.21.53.41.81.6.55.41,1.1.81,1.66,1.22.01.01.03.02.06.05.57.42,1.16.85,1.74,1.26.17.14.35.27.53.39.03.02.07.05.1.08h.01c.2.15.38.29.58.43Z"/>
          <path class="cls-5" d="m671.04,228.66c-45.59-68.6-123.01-151.21-232.92-155.22h-.28s-.24.12-.24.12c-.52.26-50.39,26.13-102.98,72.34.72.3,1.37.68,2.02,1.07,50.25-44.03,97.85-69.36,101.69-71.37,108.84,4.11,185.64,86.11,230.91,154.22,49.18,73.97,72.82,147.98,73.05,148.72l2.04-.64c-.24-.74-23.95-74.99-73.28-149.22Z"/>
          <path class="cls-5" d="m432.96,75.54s-.07.01-.17.04c-.07.02-.18.06-.33.12h-.01c-.22.06-.5.14-.85.26-.67.21-1.58.5-2.73.86-10.86,3.52-42.21,14.44-79.09,34.1-6.53,3.47-13.22,7.24-20.01,11.26-7.38,4.38-14.88,9.09-22.36,14.14-4.98,3.36-10.06,6.95-15.18,10.76h-.04c-.92.72-1.88,1.44-2.82,2.18h-.04c-2.47,1.87-4.95,3.79-7.41,5.76-17.3,13.78-34.64,30.04-50.12,48.94-.59.71-1.17,1.43-1.75,2.15-4.34,5.41-8.54,11.02-12.54,16.85-8.3,12.14-15.76,25.21-21.98,39.23-2.48,5.6-4.76,11.35-6.8,17.26-.26.73-.51,1.46-.76,2.2-.37,1.1-.73,2.18-1.07,3.29-.37,1.12-.71,2.24-1.05,3.38-.37,1.19-.72,2.37-1.06,3.58h0c-.19.72-.39,1.43-.59,2.15-.77,2.82-1.49,5.68-2.14,8.56h-.01c-.68-.01-1.39-.04-2.11-.06.65-2.79,1.35-5.62,2.11-8.48.2-.71.4-1.43.6-2.15.34-1.23.7-2.47,1.09-3.71.87-2.92,1.82-5.84,2.83-8.81,2.11-6.15,4.57-12.4,7.39-18.73,5.45-12.33,12.33-24.92,20.87-37.64,3.79-5.62,7.9-11.26,12.37-16.9h.01c.57-.73,1.12-1.44,1.71-2.16,13.88-17.23,31.12-34.48,52.42-51.29,1.43-1.12,2.87-2.26,4.36-3.4h.01c.94-.72,1.9-1.45,2.87-2.17,5.61-4.23,11.5-8.43,17.67-12.6,7.97-5.38,15.95-10.38,23.79-14.99,6.72-3.97,13.34-7.65,19.78-11.06,33.91-17.98,63-28.56,75.7-32.81,1.95-.65,3.51-1.15,4.64-1.51,1.37-.43,2.11-.64,2.18-.66l.18.58.13.44h0s.3,1.04.3,1.04Z"/>
          <path class="cls-5" d="m179.07,494.63c2.15,8.34,5.01,17.26,8.76,26.66.85,2.14,1.76,4.29,2.7,6.47.71,1.63,1.44,3.28,2.21,4.94,9.39,20.27,21.48,39.13,35.5,56.58h.01c.57.73,1.13,1.43,1.72,2.14,17.53,21.48,38.01,40.85,59.9,58.22h.01c.87.72,1.75,1.41,2.64,2.11l.02.02c19.16,14.98,39.39,28.45,59.65,40.47h.01c25.68,15.23,51.43,28.12,75.29,38.82,1.58.71,3.15,1.41,4.71,2.09l.87-1.96c-.07-.04-.14-.06-.21-.09-29.69-13.11-55.94-26.64-79.13-40.36h-.01c-21.87-12.92-41-26.02-57.79-39.01l-.02-.02c-.91-.71-1.81-1.41-2.69-2.1h-.01c-25.23-19.88-44.96-39.55-60.39-58.22-.58-.72-1.16-1.42-1.72-2.13h-.01c-16.87-20.78-28.43-40.25-36.33-57.3-.68-1.48-1.35-2.93-1.96-4.38-.98-2.22-1.9-4.42-2.77-6.59-3.79-9.37-6.65-18.29-8.81-26.6l-2.15.24Z"/>
        </g>
        <path class="cls-3" d="m152.63,582.71s3.01,5.8,17.47,3.46c0,0,6.19-1.61,12.68-5.51,2.15-1.3,3.7-3.39,4.26-5.84,1.17-5.1,4.53-13.54,13.45-6.91,0,0,9.42,4.87,12.07,14.6.11.42.14.86.18,1.3.09,1.22,1.31,4.42,11.13,5.79,0,0,17.59,3.64,17.13,31.32-.04,2.27-1.65,4.21-3.88,4.6-8.55,1.49-29.23,6.51-32.46,20.48,0,0-31.12-26.54-53.79-62.18l1.76-1.1Z"/>
        <path class="cls-3" d="m347.31,552.26s1.24,13.33,21.74,32.14c0,0,19.25,14.55,19.87,18.79v18.19s1.86,10.92,16.77,11.52h16.77s6.83.61,18.01,12.73c0,0,18-.6,8.69-18.8l-3.11-48.51,14.28-32.13-113.02-14.56v20.62Z"/>
        <path class="cls-3" d="m633.31,502.39v16.98c-2.48,12.13-24.84,33.35-24.84,33.35-8.69,7.27-10.54,29.1-10.54,29.1-.54,1.7-1.12,3.16-1.71,4.39-.38.81-.77,1.52-1.16,2.15-4.64,7.4-9.94,3.22-12.67.11-.79-.9-1.37-1.71-1.64-2.13-.12-.18-.18-.27-.18-.27l-.05-21.23c.63-9.1-5.58-14.56-5.58-14.56l-2.18-7.66-7.54-26.47c.65-.21,1.31-.44,1.98-.67,1.13-.38,2.28-.79,3.48-1.22-.28-2.57-.55-5.05-.83-7.44-.17-1.5-.33-2.99-.51-4.44h63.97Z"/>
        <path class="cls-3" d="m319.61,714.12l9.31-16.87s1.39-2.73,8.85,0c0,0,7.45,3.64,14.44-5l6.52-6.37s2.8-7.73,18.17,4.55l31.2.46s6.75-14.5,28.2-2.91c.57.31,1,.8,1.39,1.31.48.64,1.93,1.15,6.28-1.58,0,0,3.26-7.28,15.37-8.64,0,0,14.44-4.55,7.45,10.46,0,0-3.73,6.36,6.06,9.55l13.04,7.28s2.8,1.82,8.85,1.82l33.06-.46s7.37,6.3,10.16,9.03c0,0-105.31,39.26-218.36-2.62Z"/>
        <path class="cls-3" d="m638.91,560.92c-3.58.02-6.28-3.36-5.19-6.77.85-2.67,3.23-6.18,8.69-10.58,14.29-11.52,10.56-11.52,22.36-7.28,0,0,12.42,5.28,3.1,10.82,0,0-15,13.71-28.96,13.8Z"/>
        <path class="cls-3" d="m469.24,263.44s-5.58-15.01,21.43-20.46c27.01-5.46,20.03,15.92,20.03,20.46s-3.26,24.1-23.76,29.11c0,0-7.45,3.18-10.25-6.37-2.79-9.55,2.34-8.18-2.79-14.1-5.12-5.91-4.67-8.64-4.67-8.64Z"/>
        <path class="cls-3" d="m584.75,143.86c-.35-3.75-1.45-7.83-2.99-11.9h0c-.5-1.36-1.04-2.67-1.62-4v-.02c-5.7-13.14-14.56-25.16-14.56-25.16,0,0-.2-.2-.61-.5-.98-.72-3.15-2.04-6.42-2.66h-.02c-3.93-.74-9.45-.43-16.36,3.25-.72.37-1.45.78-2.21,1.24-1.15.7-2.34,1.48-3.55,2.37-8.18,5.96-13.48,10.85-16.87,14.46-.52.58-1,1.11-1.43,1.61-3.15,3.61-4.05,5.56-4.05,5.56,0,0-8.08-2.48-9.94-9.27-1.87-6.8-26.69-11.13-32.29-11.13s-4.34-13.12,7.45-8.41c2.13.85,4.42,1.09,6.71.86h.01c1.02-.11,2.02-.31,3.01-.59h.01c6.51-1.78,12.26-6.99,12.89-12.2h0c.09-.78.08-1.53-.07-2.29-.17-.91-.52-1.82-1.07-2.69-.28-.43-.61-.85-1-1.25-.54-.58-1.55-1.16-2.96-1.71-12.87-5.03-44.24-5.42-44.24-5.42-.09,0-.2-.01-.31-.01-1.56-.07-4.03-.17-7.08-.34h-.04c-.08,0-.17-.01-.25-.01-.63-.02-1.3-.04-2-.05-.63-.02-1.26-.04-1.94-.05h-.12s-.09,0-.14-.01c-.96-.01-1.96-.02-3-.04h-.01c-1.66-.02-3.44-.04-5.31-.02h-.78c-3.44.01-6.59.07-9.37.14-.4.01-.79.02-1.17.04s-.74.02-1.1.04c-.4.01-.8.02-1.19.04-.94.04-1.82.07-2.63.11-.4.02-.79.04-1.16.06-.37.01-.72.04-1.05.05-.58.02-1.16.06-1.75.09-.64.04-1.15.07-1.51.09-.32.02-.64.04-.96.06-.72.05-1.56.11-2.51.18-.7.05-1.44.11-2.26.18-.28.02-.57.05-.85.07-.61.05-1.22.09-1.82.15-1.26.12-2.63.25-4.1.39-.73.07-1.49.15-2.27.24-1.16.13-2.37.26-3.64.43-1.02.11-2.07.24-3.15.38-2.41.31-4.97.65-7.67,1.05-.61.09-1.23.19-1.84.28-.78.12-1.55.24-2.33.37-.26.04-.52.07-.79.12-14.82,2.38-31.35,5.14-51.74,12.79-.01,0-.08.02-.09.04-32.04,9.59-63.58,24.06-89.47,45.3-1.88,1.53-4.23,2.88-6.03,4.47l2.75.64,18.84,3.53,2.74,2.73,2.14,2.11h.01s6.3,6.28,6.3,6.28l9.55-6.45h.27s2.95-2.18,2.95-2.18l4.62-3.11.72,3.05.52,2.14.8,3.34.57,2.33,7.32,30.54s-9.68,6.77-7.79,14.9c.17.77.45,1.55.85,2.33.12.24.26.47.4.72h0c.43.71.96,1.43,1.59,2.13.83.93,1.84,1.87,3.08,2.77,14.9,11.13,18.63,2.48,18.63,2.48,0,0,4.34,19.76-13.05,10.5-17.38-9.26,5.61-9.26-18.01-5.56-1.18.19-2.28.37-3.31.53-1.11.19-2.14.37-3.06.53-15.24,2.66-7.79,2.66-17.24,2.66-10.56,0-12.42-7.41-12.42-7.41l-12.41,10.5-9.01.33-2.68.08-22.47.81-10.56,12.99-26.72-16.53-1.81-1.11s-.06.08-.18.26c-.07.12-.18.26-.31.45-.64.93-1.85,2.74-3.51,5.21-.17.25-.33.5-.51.76-.01.02-.02.04-.05.06-7.88,10.87-23.41,33.92-32.42,58.22-.68,1.83-1.32,3.67-1.92,5.51-2.05,6.28-3.6,12.59-4.4,18.71v.02c-.08.65-.15,1.3-.22,1.95l1.85.08,2.63.12c3.71-1.18,7.06-2.11,10.47-2.92.79-.18,1.59-.37,2.4-.52,4.53-.98,9.34-1.77,15.34-2.61.5,2.51.98,4.95,1.45,7.32l2.88.13,1.63-11.89c.27-2.01,1.04-3.98,2.01-5.76h0c.41-.77.86-1.48,1.31-2.16,1.22-1.82,2.53-3.34,3.51-4.4.92-.98,1.55-1.55,1.55-1.55l8.86-6.09-.09-.64-2.24-15.44,15.38-18.02s7.13,6.91,15.27,14.68c.52.5,1.04.99,1.57,1.51,7.77,7.4,16.08,15.25,19.84,18.49.4.35.76.65,1.05.89,3.65,2.93,8.49,3.02,12.57,3.72.74.12,1.46.27,2.14.44,1.78.5,3.32,1.25,4.38,2.64.63.83.96,1.92,1.05,3.16.06.52.06,1.06.04,1.63-.01.17-.02.33-.04.51-.46,6.14-4.3,14.19-4.3,14.19l-.31,1.03c.84.15,1.65.32,2.46.46.72.14,1.43.28,2.13.4,17.33,3.28,28.38,5.28,46.42,8.13l29.22,1.26,2.15.09,108.44,4.7s-1.02-2.47-2.18-6.32c-.27-.91-.55-1.9-.85-2.95-.46-1.74-.92-3.65-1.32-5.67-1.05-5.22-1.71-11.15-1.09-16.66h0c.07-.72.17-1.44.3-2.15.05-.3.11-.57.17-.85,3.11-14.83,8.08-14.83,8.08-14.83,0,0,0-13.58-23.61-40.77,0,0-4.33-5.56,5.61-5.56s9.3,3.09,10.54,4.94c0,0,3.72,1.24,7.46-2.47,0,0,3.07,6.13,8.67,10.53.68.54,1.42,1.06,2.18,1.53,2.26,1.42,4.86,2.46,7.77,2.76,11.81,1.24,19.26-14.83,21.12-35.83h21.74s1.94-2.02,3.16-5.8c.21-.66.4-1.37.55-2.14,1.25-5.95.35-15.07-9.32-26.66,0,0-10.56-2.47,6.22-18.54,0,0,1.23-16.06,14.9,4.95l3.11,12.96,11.24-.15,2.47-.02,32.24-.44s8.82-2.92,17.33-8.11c1.11-.67,1.66-1.04,1.87-1.18,3.24-2.17,13.45-9.03,13.72-18.52.01-.2.01-.39.01-.59-.01-.44-.05-.8-.11-1.55Zm-261.83,88.99c0-11.83,0-5.45-8.37-14.1-8.39-8.64,0-11.82,0-11.82,10.71-7.3,22.82-4.1,22.82-4.1-2.34,17.27,1.87,14.55,2.79,18.18.93,3.65,6.06,8.64,2.8,15.47-3.26,6.82-20.04,8.19-20.04-3.64Zm-14.16-117.64v-9.71h13.67s7.45,0,0,9.71h-13.67Zm14.62,39.42s15.51-.61,14.27,3.62c-1.24,4.25-6.21,16.38-14.27,9.72-8.08-6.68,0-13.34,0-13.34Zm46.61,25.46s1.87-11.36,11.64-16.82c0,0,.93-5.9,8.84,10.46,7.92,16.38,9.33,19.56,4.22,22.74-5.15,3.18-16.78,4.55-20.97,0-4.2-4.55-3.73-16.38-3.73-16.38Zm-20.21-69.18c-.15,4.09-.76,8.75-1.23,10.73-.93,3.87-12.1,14.78-16.75,9.33-1.84-2.15-2.24-5.53-2.03-8.8.06-.91.17-1.79.28-2.64.37-2.42.94-4.59,1.33-5.9.24-.83.63-1.61,1.18-2.27,7.14-8.52,13.74-7.69,15.99-7.69.87,0,1.23,2.05,1.28,4.79.01.78,0,1.61-.05,2.44Zm-43.26,45.09c13.02-8.49,10.56,5.45,10.56,7.58s-8.09,7.58-8.09,7.58h-14.9s-.63-6.67,12.43-15.16Zm35.16,15.6c-8.08-13.34,12.11-27.9,12.11-27.9,0,0,7.86-5.51,8.37,0l3.74,39.42s-16.15,1.82-24.23-11.52Zm-92.33-36.18c-1.18-.77-2.47-2.57-2-3.92.24-.67.87-1.11,1.06-1.24.52-.38,1.28-.68,2.38-.64,1.38.05,1.35-.05,3.34.34.55.11,4.65,1.07,4.77,2.41.17,1.74-6.21,5.25-9.56,3.05Zm26.25-5.36s.93-10,14.44-10-6.52,17.73-14.44,10Z"/>
        <path class="cls-3" d="m748.42,288.05c-.04-.09-.07-.19-.11-.27-1.18-2.99-2.41-6-3.71-9.02-.34-.84-.71-1.69-1.06-2.51-.53-1.2-1.05-2.41-1.59-3.61-1.17-2.64-2.4-5.31-3.67-7.98-.34-.72-.67-1.43-1.03-2.15-.54-1.15-1.11-2.3-1.68-3.47-.61-1.22-1.23-2.43-1.85-3.65-.55-1.07-1.12-2.15-1.69-3.24-.01-.01-.01-.04-.04-.06-.39-.74-.78-1.49-1.17-2.24h-.01c-.32-.01-1.26-.05-2.59-.26-5.88-.98-19.09-5.45-16.42-26.03,0-.01,0-.41-.08-1.05-.27-2.04-1.42-6.55-6.17-8.81-1.72-.8-3.92-1.33-6.69-1.33,0,0-.68-6.58-12.29,0,0,0-24.55,11.19-6.13,19.08,0,0,18.32,17.65,8.19,25.41-.52.4-1.12.78-1.82,1.12-2.62,1.31-6.45,2.18-11.85,2.38,0,0-8.17,1.32-9.53-23,0,0-.68-11.18-15.02-21.7v-32.87h-25.24s-11.61,3.94-9.55,7.89c2.04,3.94-9.55,1.31-11.59-.66-.57-.54-4.37-1.1-9.27-1.06h-.01c-.91,0-1.85.02-2.81.07h-.01c-9.58.51-21.44,3.31-22.5,12.02h0c-.11.7-.12,1.39-.06,2.14h0c.15,2.29.96,4.89,2.6,7.88,0,0,15.74,17.51-21.81,26.68-.68.17-1.38.34-2.1.51-1.71.37-3.52.73-5.43,1.09,0,0-9.41,27.21-22.98,50.13-.41.72-.84,1.44-1.29,2.15-2.64,4.34-5.45,8.5-8.38,12.23-1.84,2.37-3.74,4.58-5.68,6.55-.41.44-.83.85-1.25,1.26l8.48,8.45c9.11-2.4,21.78-5.63,35.33-10.63,3.05-1.12,11.05-2.38,19.56-3.47.7-.09,1.41-.18,2.13-.27,10.18-1.24,20.56-2.21,23.65-2.33.73-.04,1.44-.05,2.15-.05,4.81.06,9.17.99,13.08,2.9,9.16,4.51,15.49,14.07,19,31.59,3.61,17.99,2.49,36.23-3.34,52.85-2.59,7.38-23.44,34.5-28.08,40.47l50.89,66.16s1.98-1.78,5.35-4.26c1.05-.78,2.23-1.63,3.54-2.51h.01c.99-.67,2.05-1.37,3.18-2.08,3.39-2.13,7.32-4.3,11.55-6.12,5.58-2.41,11.69-4.18,17.75-4.38,9.5-.3,17.7,1.37,23.79,4.32h.01c.67.32,1.3.66,1.91,1,5.9,3.35,9.43,7.98,9.76,13.09.68,10.52-9.54,19.72-9.54,19.72,0,0-6.16,6.56,4.76,16.43,7.97,7.2,11.07,16.49,12.18,20.99.4,1.66.91,2.82.91,2.82,0,0,.02-.04.07-.12.02-.05.06-.09.09-.17.27-.47.86-1.52,1.69-3.2,0,0,.01-.01.01-.02,12.53-19.61,71.35-123.31,15.51-264.82Zm-87.36,73.64c9.02-4.86,10.56,7.57,11.5,9.69.93,2.13,6.05,15.16-9.4,11.52-15.44-3.64-9.24-9.4-9.24-9.4,0,0-1.85-6.98,7.14-11.82Zm-.47-104.96c5.82.46,6.75,5.47,6.99,6.84.22,1.36-1.87,11.58-13.28,16.59-11.41,5.01-17.24-1.82-17.24-1.82v-21.61s17.7-.45,23.53,0Z"/>
        <g>
          <path class="cls-5" d="m827.9,383.9c-1.04-4-3.07-6.75-6.47-7.8v-.18c4.63-1.37,8.3-4.75,8.3-9.85,0-3-1.24-5.63-3.47-7.34-2.73-2.22-6.65-3.19-12.7-3.19-3.92,0-8.03.31-10.9.83v38.17h5.69v-16.77h5.35c5.14.15,7.49,2.18,8.78,7.51,1.25,4.84,2.21,8.17,2.93,9.26h5.88c-.91-1.49-1.95-5.24-3.39-10.64Zm-13.74-9.93h-5.81v-14.12c.91-.24,2.86-.46,5.6-.46,5.99.06,10.11,2.26,10.11,7.23,0,4.44-3.85,7.36-9.89,7.36Z"/>
          <path class="cls-5" d="m815.31,337.99c-18.99,0-34.42,16.13-34.42,35.98s15.43,36,34.42,36,34.42-16.15,34.42-36-15.44-35.98-34.42-35.98Zm0,66.42c-16.21,0-29.39-13.66-29.39-30.45s13.18-30.45,29.39-30.45,29.36,13.66,29.36,30.45-13.18,30.45-29.36,30.45Z"/>
        </g>
        <g>
          <path class="cls-2" d="m651.65,743.23c1.89-5.83,1.25-12.26-1.81-18.08-1.37-2.6-3.07-4.86-5.08-6.72-7.24-6.76-17.65-7.86-27.16-2.86-12.34,6.51-16.71,19.97-10.4,32,1.37,2.6,3.07,4.86,5.08,6.72,7.25,6.77,17.66,7.85,27.16,2.85,5.98-3.14,10.31-8.08,12.21-13.91Zm-15.01,8.59c-6.53,3.43-13.55,2.57-18.79-2.32-1.6-1.49-2.96-3.3-4.05-5.38-4.78-9.09-2.06-18.65,6.6-23.22,6.53-3.43,13.55-2.57,18.78,2.32,1.6,1.49,2.97,3.31,4.06,5.39,4.78,9.12,2.07,18.67-6.6,23.22Z"/>
          <path class="cls-2" d="m140.96,621.36l-47.2,12.82,5.02,6.59,8.84-2.5.32-.08.09-.02.06.08.2.26,13.45,17.62.19.25.07.08-.06.09-.17.28-4.72,7.86,5.03,6.58,24.78-42.16-5.9-7.75Zm-1.94,7.78l-.63,1.04-12.36,20.39-.35.59-.12.19-.13-.18-.43-.55-10.56-13.81-.41-.54-.14-.18.21-.07.66-.19,22.92-6.56,1.16-.34.38-.12-.2.34Z"/>
          <path class="cls-2" d="m176.17,660.93c-4.81-4.83-10.81-7.63-16.93-7.88-.32-.01-.6-.02-.9-.02-5.89,0-11.59,2.43-16.05,6.85-9.6,9.52-9.28,23.78.74,33.92,4.42,4.45,9.62,6.72,15.47,6.72,1.32,0,2.7-.12,4.11-.35l-2.08-6.21c-.86.18-1.77.26-2.68.26-3.99,0-7.9-1.63-10.72-4.49-7.1-7.15-7-17.56.21-24.72,3.48-3.45,7.89-5.35,12.41-5.35,4.55.01,8.9,1.91,12.3,5.35,3.48,3.52,5.05,8.67,4.11,13.45l6.19,2.15c1.39-7.49-.7-14.1-6.19-19.67Z"/>
          <path class="cls-2" d="m211.9,691.73c-4.79-3.7-10.21-5.64-15.69-5.64-7.1,0-13.5,3.25-18.03,9.14-4.04,5.24-5.7,11.52-4.68,17.69,1.02,6.06,4.55,11.67,9.93,15.81,4.13,3.18,8.62,4.78,13.32,4.78,2.26,0,4.59-.37,6.95-1.1l-2.9-5.87c-1.44.5-2.99.74-4.57.74-3.34,0-6.64-1.11-9.27-3.13-7.98-6.15-9.28-16.47-3.08-24.53,2.99-3.88,7.12-6.35,11.61-6.95.72-.09,1.44-.14,2.16-.14,3.79,0,7.5,1.31,10.72,3.8,3.87,2.98,6.16,7.97,5.87,12.76l6.43,1.29c.38-7.6-2.57-13.87-8.77-18.64Z"/>
          <g>
            <path class="cls-2" d="m256.9,726.01c-1.09-3.57-3.71-6.64-7.56-8.88l-17.77-10.37-22.83,39.12,6.23,3.64,8.45-14.48.25-.41.07-.13.14.08.4.24,7.25,4.25.22.14.07.05v.33s.48,20.08.48,20.08l7.15,4.17-.92-20.59-.04-.73v-.25s.21.09.21.09l.68.27c1.57.61,3.28.94,4.95.94,4.6,0,8.52-2.38,11.05-6.73,2.07-3.53,2.59-7.28,1.49-10.84Zm-7.91,7.1c-1.45,2.48-3.88,3.91-6.67,3.91-1.68,0-3.42-.51-5.05-1.46l-10-5.84-.41-.25-.13-.07.08-.14.24-.4,7.46-12.77.25-.41.07-.13.14.08.4.24,10,5.84c4.51,2.63,6.01,7.32,3.62,11.42Z"/>
            <path class="cls-2" d="m208.57,745.87l-.04.07,6.05,3.53-6.01-3.6Z"/>
          </g>
          <path class="cls-2" d="m273.72,736.57l.06-.14.14.06,22.41,9.86,2.3-5.22-28.95-12.74-18.1,41.26,28.94,12.74,2.3-5.22-22.41-9.86-.14-.06.06-.14,5.66-12.92.06-.14.14.06,21.95,9.66,2.29-5.22-21.95-9.65-.14-.06.06-.14,5.32-12.14Z"/>
          <path class="cls-2" d="m338.12,760.16c-3.08-5.28-8.36-9.15-15.27-11.23l-16.59-4.97-13.05,43.41,16.61,4.98c2.95.87,5.89,1.32,8.7,1.32,10.4,0,18.39-5.95,21.41-15.93,1.88-6.29,1.25-12.37-1.82-17.59Zm-5.32,15.45c-2.2,7.37-8.13,11.94-15.48,11.94-1.88,0-3.81-.3-5.77-.9l-9.09-2.72-.46-.12-.14-.05.05-.15.14-.46,9.26-30.84.13-.45.04-.14.15.05.45.14,9.08,2.72c4.98,1.49,8.71,4.31,10.77,8.13,2,3.71,2.3,8.15.89,12.85Z"/>
          <path class="cls-2" d="m354.63,757.34l-8.95,44.19,6.85,1.38,8.94-44.19-6.84-1.38Z"/>
          <path class="cls-2" d="m368.5,760.46l-.7,5.67,14.38,1.77.14.02v.15s-4.76,38.91-4.76,38.91l6.94.85,4.72-38.93.02-.14h.15s14.37,1.78,14.37,1.78l.7-5.67-35.98-4.43Z"/>
          <path class="cls-2" d="m418.55,771.11v-.15h.15l24.46.33.07-5.69-31.61-.43-.61,45.07,31.61.43.08-5.71-24.48-.32h-.15v-.15l.19-14.1v-.15h.15l23.97.31.08-5.69-23.97-.32h-.15v-.15l.2-13.26Z"/>
          <path class="cls-2" d="m495.49,783.47c-1.28-12.24-10.47-20.17-23.42-20.17-1.17,0-2.31.06-3.44.19l-17.21,1.82,4.73,45.04,17.21-1.83c7.15-.76,13.07-3.57,17.08-8.16,3.99-4.55,5.74-10.39,5.04-16.9Zm-10.79,13.11c-2.76,3.42-6.91,5.51-11.96,6.06l-9.45,1-.47.05h-.15s-.01-.14-.01-.14l-.05-.47-3.33-32-.05-.47v-.15s.14-.01.14-.01l.47-.05,9.42-1c.85-.08,1.66-.13,2.42-.13,9.02,0,15.46,5.88,16.41,14.99.48,4.64-.72,9.02-3.4,12.33Z"/>
          <path class="cls-2" d="m556.13,759.59c-1.72-6.25-6.8-10.12-13.26-10.12-1.63,0-3.34.25-5.08.74l-19.86,5.49,12.18,43.64,6.97-1.94-4.52-16.12-.12-.47-.04-.14.14-.04.45-.13,12.29-3.42c4.45-1.23,7.82-3.66,9.73-7.05,1.75-3.09,2.15-6.81,1.11-10.45Zm-7.79,7.9c-1.12,2-3.18,3.49-5.76,4.22l-11.16,3.09-.46.12-.14.04-.04-.14-.13-.45-4-14.25-.12-.47-.04-.14.14-.04.45-.13,11.18-3.12c.97-.26,1.96-.4,2.94-.4,3.8,0,6.78,2.21,7.78,5.75.58,2.11.35,4.17-.65,5.93Z"/>
          <path class="cls-2" d="m591.71,760.67l-.74-.52-.2-.14.2-.12.78-.47c4.32-2.61,8.26-8.38,5.15-16.08-2.23-5.43-6.75-8.55-12.4-8.55-2.2,0-4.49.47-6.78,1.41l-18.96,7.75,16.99,41.71,6.49-2.63-6.28-15.4-.22-.54-.06-.14.14-.06.54-.22,7.78-3.18.31-.13.08-.04.07.06.27.2,16.14,11.78,7.4-3.01-16.71-11.68Zm-6.77-3.67l-10.73,4.37-.54.22-.14.06-.06-.14-.22-.54-5.57-13.7-.22-.54-.06-.14.14-.06.54-.22,10.72-4.37c1.33-.55,2.69-.84,4.04-.84,3.35,0,6.12,1.85,7.38,4.97.87,2.15.83,4.42-.12,6.39-.96,1.97-2.77,3.59-5.15,4.55Z"/>
          <path class="cls-2" d="m691.58,692.64c-4.38-5.69-10.5-8.83-17.21-8.83-5.44,0-10.97,2.05-15.99,5.93l-13.66,10.5,27.49,35.74,13.64-10.51c11.45-8.83,13.81-22.33,5.74-32.82Zm-9.2,28.29l-7.52,5.81-.47.35-.12.09-.09-.12-.37-.47-19.62-25.5-.35-.46-.09-.12.12-.09.46-.37,7.52-5.81c3.51-2.69,7.32-4.12,11.03-4.12,4.95,0,9.58,2.46,13,6.93,6.03,7.83,4.6,17.65-3.48,23.87Z"/>
          <g>
            <path class="cls-2" d="m731.16,660.21l-19.52-19.23-4.96,5.03,19.36,19.09c2.82,2.77,4.33,5.94,4.36,9.14.02,3.2-1.45,6.4-4.29,9.24-2.87,2.92-6.1,4.45-9.36,4.45s-6.29-1.45-9.08-4.2l-19.37-19.08-4.97,5.03,19.58,19.28c3.93,3.87,8.18,5.83,12.65,5.83,4.92,0,10.01-2.5,14.69-7.25,4.7-4.76,7.06-9.66,7.02-14.56-.04-4.45-2.15-8.87-6.1-12.77Z"/>
            <path class="cls-2" d="m725.78,691.5c.61-.41,1.23-.87,1.84-1.37-.61.5-1.23.94-1.84,1.37Z"/>
          </g>
          <path class="cls-2" d="m771.55,622.91l-5.82,2.96c1.59,4.51.72,9.94-2.23,13.87-2.9,3.87-6.97,6.34-11.43,6.97-.74.11-1.51.15-2.27.15-3.79,0-7.52-1.3-10.79-3.75-3.93-2.94-6.45-7.03-7.1-11.51-.64-4.47.6-9.07,3.51-12.93,2.77-3.72,7.37-6.02,11.98-6.02.24,0,.48,0,.71.01l1.22-6.43c-.32-.01-.66-.01-.98-.01-7.17,0-13.07,3.02-17.54,9-4.14,5.5-6.03,11.91-5.32,18.05s3.98,11.69,9.21,15.62c4.18,3.13,8.97,4.78,13.88,4.78,7.43,0,14.55-3.81,19.54-10.46,4.64-6.17,5.8-13,3.44-20.3Z"/>
          <path class="cls-2" d="m760.02,582l-.14-.07.08-.13,7.19-12.54-4.94-2.83-18.02,31.38,4.94,2.85,7.2-12.54.07-.14.13.08,34,19.53,3.48-6.06-34-19.53Z"/>
          <path class="cls-2" d="m768.06,553.2l-2.98,6.34,40.84,19.07,2.96-6.33-40.83-19.08Z"/>
          <path class="cls-2" d="m822.78,520.39c-2.6-5.55-7.45-9.81-13.66-11.98-2.77-.97-5.56-1.45-8.3-1.45-9.91,0-18.26,6.29-21.81,16.43-4.58,13.18,1.41,26,14.23,30.5,2.77.97,5.56,1.45,8.3,1.45,9.92,0,18.27-6.3,21.81-16.45,2.23-6.38,2.03-12.94-.57-18.5Zm-5.11,16.52c-2.43,6.97-8.16,11.12-15.33,11.12-2.18,0-4.42-.39-6.64-1.17-9.69-3.39-14.23-12.23-11.02-21.48,2.43-6.97,8.16-11.12,15.31-11.12,2.18,0,4.43.39,6.65,1.17,9.72,3.4,14.25,12.23,11.02,21.48Z"/>
          <path class="cls-2" d="m839.85,469.42l1.3-6.95-44.32-8.25-1.29,6.86,32.76,6.1.45.08-.4.21-37.55,18.96-1.41,7.45,44.35,8.25,1.29-6.87-33.68-6.27-.45-.08.4-.21,38.55-19.28Z"/>
        </g>
        <g>
          <path class="cls-2" d="m89.64,197.03l33.44,10.43,4.29-6.75-31.09-35.36-4.32,6.79,24.95,26.61,1.22,1.29.37.39-.52-.17-1.7-.52-35.04-10.77-3.05,4.82,24.62,27.14,1.18,1.31.35.39-.51-.17-1.68-.54-34.74-11.22-4.31,6.77,45.28,13.07,4.29-6.74-23.66-25.77-1.19-1.29-.35-.39.51.17,1.68.52Z"/>
          <path class="cls-2" d="m150.45,138.03c-4.57-4.05-9.96-6.19-15.57-6.19-6.58,0-12.83,3-17.64,8.43-9.08,10.3-8.3,24.29,1.85,33.27,4.58,4.04,9.95,6.17,15.55,6.17,6.58,0,12.86-3,17.66-8.44,9.08-10.28,8.3-24.26-1.85-33.25Zm-2.66,29.27c-3.25,3.67-7.36,5.62-11.89,5.62-4.16,0-8.41-1.74-11.97-4.88-3.65-3.24-5.92-7.33-6.36-11.54-.47-4.39.97-8.62,4.17-12.24,3.26-3.67,7.38-5.62,11.91-5.62,4.17,0,8.41,1.74,11.96,4.88,3.71,3.28,5.96,7.44,6.35,11.72.4,4.29-1.09,8.57-4.17,12.05Z"/>
          <path class="cls-2" d="m167.76,129.56l6.23-5.42.2-.18.06-.06.08.04.25.08,19.01,6.07,6.17-5.35-19.68-5.84-.7-.2-.21-.07.14-.17.46-.55c3.24-3.84,5.05-10.57-.44-16.88-2.77-3.19-6.4-4.94-10.2-4.94h-.01c-3.52,0-7.05,1.45-10.21,4.2l-15.31,13.29,29.69,34.13,5.37-4.68-10.97-12.62-.31-.35-.09-.11.11-.09.35-.31Zm-3.92-4.5l-.35.31-.11.09-.09-.11-.31-.35-9.71-11.13-.32-.35-.09-.11.11-.09.37-.31,8.62-7.47c1.82-1.58,3.97-2.44,6.05-2.44,2.21,0,4.27.97,5.81,2.74,1.43,1.64,2.11,3.58,1.97,5.62-.15,2.24-1.33,4.43-3.33,6.14l-8.61,7.47Z"/>
          <path class="cls-2" d="m226.25,98.82l-16.68,11.63-.39.27-.12.08-.08-.12-.27-.39-22.08-31.7-5.82,4.06,25.81,37.06,23.01-16.05-3.38-4.85Z"/>
          <path class="cls-2" d="m261.58,60.06c-4.09-7.57-11.09-11.9-19.21-11.9-4.26,0-8.6,1.17-12.89,3.48l-15.02,8.09,21.48,39.82,15.01-8.12c6.25-3.36,10.57-8.17,12.49-13.9,1.9-5.68,1.26-11.72-1.85-17.47Zm-4.79,15.89c-1.19,4.3-4.19,7.84-8.65,10.26l-8.22,4.43-.41.22-.13.06-.07-.12-.22-.41-15.25-28.25-.22-.41-.06-.13.12-.07.41-.22,8.23-4.43c2.99-1.61,5.96-2.42,8.84-2.42,5.79,0,10.87,3.31,13.99,9.07,2.17,4.01,2.76,8.43,1.65,12.43Z"/>
          <path class="cls-2" d="m291.89,36.02l20.14,28.63,7.49-2.72-3.02-46.97-7.56,2.74,3.52,36.28.17,1.77.05.53-.31-.44-1.03-1.45-21.18-29.88-5.36,1.94,2.95,36.52.14,1.76.05.53-.31-.44-1-1.45-20.66-30.07-7.56,2.74,27.88,37.95,7.5-2.72-3.01-34.85-.15-1.74-.05-.52.31.43,1.02,1.43Z"/>
          <path class="cls-2" d="m334,11.56l-6.91,1.69,10.73,43.91,6.92-1.7-10.74-43.9Z"/>
          <path class="cls-2" d="m392.25,24.17c-1.77-11.58-10.67-19.07-22.67-19.07-1.52,0-3.12.13-4.73.38l-16.86,2.56,6.84,44.68,16.86-2.57c7.01-1.06,12.69-4.14,16.44-8.88,3.7-4.73,5.12-10.64,4.13-17.1Zm-21.45,20.11l-9.24,1.42-.46.07-.14.02-.02-.14-.08-.47-4.85-31.71-.07-.46-.02-.14.14-.02.47-.08,9.24-1.43c1.12-.17,2.24-.25,3.32-.25,8.48,0,14.59,5.44,15.95,14.2,1.48,9.67-4.38,17.49-14.23,19Z"/>
          <path class="cls-2" d="m434.95,39.22l-23.61.76h-.47s-.14.01-.14.01v-.61s-.43-12.87-.43-12.87v-.47s-.01-.14-.01-.14h.61s23.11-.74,23.11-.74l-.21-5.94-23.11.74h-.47s-.14.01-.14.01v-.61s-.4-12.02-.4-12.02v-.47s-.01-.14-.01-.14h.61s23.61-.78,23.61-.78l-.2-5.94-31.34,1.02,1.48,45.15,31.32-1.02-.2-5.93Z"/>
          <path class="cls-2" d="m497.39,9.17c-2.36-2.86-5.93-4.65-10.32-5.19l-20.13-2.49-5.56,44.84,7.06.87,2.05-16.58.06-.47.02-.14h.13s.47.07.47.07l8.21,1,.27.04h.07s.04.08.04.08l.11.25,8.19,18.18,8.11.98-8.81-18.49-.31-.65-.09-.19h.22s.72-.04.72-.04c5.01-.19,11.23-3.34,12.26-11.62.51-4.03-.46-7.64-2.77-10.46Zm-4.49,9.55c-.53,4.23-3.79,6.95-8.3,6.95-.38,0-.81-.02-1.37-.08l-11.31-1.41-.47-.06-.14-.02v-.13s.07-.47.07-.47l1.82-14.64.06-.47.02-.14h.13s.47.07.47.07l11.32,1.39c5.1.64,8.26,4.34,7.7,9.01Z"/>
          <path class="cls-2" d="m517.64,28.11l2.79-11.71.11-.46.04-.13.14.02.46.11,22.96,5.44,1.39-5.79-30.51-7.21-10.43,43.97,30.51,7.21,1.38-5.77-23-5.43-.46-.11-.13-.04.02-.14.11-.46,2.98-12.53.11-.46.04-.13.14.02.46.11,22.49,5.32,1.38-5.79-22.52-5.31-.46-.11-.13-.04.02-.14.11-.46Z"/>
          <path class="cls-2" d="m565.92,28.34c1.31,0,2.7.26,4.14.77,4.97,1.75,8.96,5.03,11.25,9.26l5.48-3.46c-2.81-5.16-7.54-8.94-14.06-11.24-2.53-.89-5.01-1.33-7.39-1.33-6.16,0-10.9,3.01-12.67,8.04-3.07,8.75,4.37,13.64,10.93,17.96,5.08,3.32,9.87,6.46,8.31,10.87-.9,2.61-3.45,4.17-6.79,4.17-1.55,0-3.26-.32-5.09-.97-7.13-2.51-10.63-7.73-12.1-10.71l-5.43,3.68c2.76,5.7,8.02,10.05,15.2,12.57,3.08,1.07,5.97,1.63,8.57,1.63,6.15,0,10.8-3.16,12.75-8.69,3.21-9.15-4.52-14.23-11.35-18.71-4.96-3.26-9.24-6.08-7.91-9.91.87-2.5,3.12-3.93,6.15-3.93Z"/>
          <path class="cls-2" d="m619.77,44.23l-18.25-8.8-19.61,40.71,6.4,3.09,7.25-15.07.2-.43.06-.13.13.06.43.2,11.3,5.45c2.49,1.2,4.96,1.81,7.36,1.81,5.23,0,9.76-2.94,12.14-7.88,3.01-6.26,1.89-14.57-7.39-19.03Zm.79,15.84c-1.37,2.83-3.92,4.46-6.99,4.46-1.43,0-2.89-.35-4.33-1.05l-10.28-4.94-.43-.2-.13-.06.06-.13.2-.43,6.41-13.29.2-.43.06-.13.13.06.43.2,10.26,4.95c2.37,1.12,4.09,2.92,4.83,5.04.67,1.92.53,3.98-.41,5.94Z"/>
          <path class="cls-2" d="m673.37,82.62c-1.3-5.92-5.09-11.18-10.66-14.79-4.2-2.74-8.86-4.19-13.44-4.19-7.67,0-14.64,3.98-19.14,10.93-3.57,5.49-4.84,11.76-3.57,17.65,1.28,5.94,5.08,11.2,10.7,14.84,4.22,2.75,8.87,4.2,13.45,4.2,7.66,0,14.64-3.98,19.14-10.93,3.57-5.49,4.82-11.78,3.52-17.71Zm-9.66,13.75c-3.49,5.36-8.69,8.43-14.25,8.43-3.08,0-6.09-.93-8.94-2.77-3.81-2.48-6.28-5.94-7.14-10.01-.93-4.37.09-9.15,2.89-13.48,3.49-5.37,8.68-8.47,14.22-8.47,3.08,0,6.1.93,8.97,2.79,8.08,5.25,9.82,14.92,4.25,23.52Z"/>
          <path class="cls-2" d="m718.18,111.55l-20.7,23.92-.92,1.07-.27.32.02-.43.09-1.42,2.72-39.98-5.79-5.01-29.6,34.19,5.4,4.65,21.28-24.59.92-1.07.27-.32-.02.43-.09,1.42-2.93,41,5.41,4.65,29.6-34.18-5.38-4.66Z"/>
          <path class="cls-2" d="m745.11,138.09c-3.88-4.3-8.51-6.67-13.05-6.67-2.93,0-5.61,1.03-7.76,2.96-6.88,6.21-2.67,14.06,1.05,20.99,2.87,5.36,5.57,10.4,2.11,13.53-1.1.99-2.48,1.51-4,1.51-1.82,0-4.69-.77-7.97-4.39-5.05-5.58-5.66-11.85-5.54-15.21l-6.51.66c-.3,6.34,2.24,12.67,7.36,18.31,4.37,4.84,9.08,7.4,13.6,7.4,3.08,0,6.02-1.19,8.49-3.44,7.17-6.47,2.82-14.63-1.03-21.82-2.81-5.25-5.23-9.78-2.23-12.5,1.06-.97,2.37-1.48,3.78-1.48,2.24,0,4.64,1.29,6.77,3.62,3.53,3.92,5.48,8.71,5.47,13.51l6.46-.43c-.01-5.88-2.36-11.45-7-16.58Z"/>
          <path class="cls-2" d="m763.86,161.29l-35.85,27.58,4.33,5.64,35.85-27.58-4.33-5.64Z"/>
          <path class="cls-2" d="m789.1,197.36l-12.3-19.17-38.03,24.44,12.66,19.71c2.76,4.33,6.54,6.73,10.61,6.73,2.2,0,4.45-.71,6.52-2.04,4.5-2.88,6.45-8.65,4.43-13.14l-1.09-2.41-.33-.73.57.58,1.85,1.89c1.78,1.83,4.3,2.88,6.9,2.88,2,0,3.94-.59,5.77-1.77,5.63-3.62,6.61-10.44,2.44-16.95Zm-20.47,18.49c-.35,1.78-1.44,3.34-3.06,4.39-1.28.83-2.6,1.24-3.93,1.24-2.38,0-4.63-1.43-6.3-4.03l-7.39-11.54-.25-.4-.07-.12.11-.07.39-.26,10.85-6.97.4-.25.12-.07.07.11.26.39,7.39,11.54c1.3,2.03,1.78,4.12,1.42,6.03Zm12.89-6.95c-1.13.73-2.37,1.11-3.59,1.11-2.28,0-4.38-1.31-5.92-3.68l-7.2-11.24-.25-.4-.07-.12.11-.07.39-.26,10.12-6.52.41-.25.12-.07.07.11.26.39,7.21,11.24c2.36,3.68,1.7,7.6-1.66,9.76Z"/>
          <path class="cls-2" d="m770.97,244.8l.13-.07.43-.21,34.63-17.19-3.15-6.38-40.51,20.11,12.46,25.17,5.32-2.64-9.03-18.24-.27-.54Z"/>
          <path class="cls-2" d="m820.37,257.42l-42.41,15.8,10.94,29.36,5.58-2.09-8.24-22.13-.17-.45-.05-.13.13-.05.44-.15,12.08-4.5.45-.15.13-.05.05.13.15.44,8.08,21.67,5.57-2.09-8.05-21.67-.17-.45-.05-.13.13-.05.44-.17,11.3-4.19.45-.15.13-.05.05.13.17.44,8.22,22.14,5.6-2.08-10.94-29.39Z"/>
        </g>
      </g>
      <g>
        <g>
          <path class="cls-2" d="m572.64,351.1c-3.35-2.92-8.55-2.81-15.43-.2-.24.08-.47.17-.7.26-3.74,1.42-5.82,2.16-9.67,3.46,2.6,16.91,4.09,25.86,7.03,43.98,3.72-1.3,5.57-2,9.33-3.47,7.37-2.93,12.28-7.47,14.56-13.01.31-.74.59-1.5.83-2.28,1.57-4.86,1.83-10.05.8-15.42-1.13-6.02-3.4-10.39-6.74-13.32Z"/>
          <path class="cls-2" d="m303.01,362.11c-3.06-3.55-8.67-5.99-16.65-7.25-7.65-1.2-11.43-1.82-18.82-2.99.31,14.62.47,21.84.83,36.28,7.19,1.1,10.86,1.69,18.29,2.89,2.01.33,5.96.06,11.69-.5,2.88-.3,5.3-1.71,7.08-4.43,1.78-2.7,2.6-6.01,2.47-9.94-.19-5.8-1.84-10.5-4.89-14.07Z"/>
          <path class="cls-2" d="m454.96,443.7v-.09c-5.23-22.99-8.44-36.93-13.81-61.76-3.96,28.08-6.55,42.07-11.31,69.49,11.23.81,16.25.81,25.28.85.57.01,1.16.01,1.76.01-.66-2.98-1.3-5.79-1.91-8.48v-.02Z"/>
          <path class="cls-2" d="m667.58,461.42h0s-.91-4.46-.91-4.46h0s-33.47-166.19-33.47-166.19l-.43-2.14-1.24-6.13-.42-2.13-4.44-22.02s-10.51,10.72-35.46,22.31h-.14c-1.56.72-3.18,1.44-4.85,2.17-1.17.51-2.37,1.02-3.59,1.52-.66.27-1.33.54-2.01.81-3.25,1.31-6.59,2.61-10.22,3.9h-.01s-.08.01-.08.01c-1.52.53-3.08,1.07-4.69,1.61-.58.19-1.05.38-1.64.57h-.01s-.09.01-.09.01c-.09.02-.19.06-.28.08-12.18,3.97-26.35,7.65-42.67,10.64-3.54.65-7.19,1.26-10.94,1.84-16.39,2.53-34.75,4.33-55.24,5.04-.71.04-1.43.06-2.15.07-4.78.15-9.68.24-14.69.26h-.6c-.51,0-1.02,0-1.53.01-5.63,0-11.41-.06-17.33-.21-22.33-.59-46.75-2.43-73.45-5.82-3.44-.44-7.52-1.23-12.24-2.27-.68-.14-1.38-.3-2.08-.46-3.79-.85-7.96-1.84-12.5-2.92-.68-.15-1.38-.32-2.09-.5-5.12-1.2-10.7-2.5-16.72-3.84h-.18c-3.09-.68-6.13-1.38-9.45-2.07h-.18c-9.88-2.05-20.64-4.1-32.6-5.89h-.2c-1.09-.17-2.17-.32-3.28-.47-2.63-.38-5.32-.76-8.06-1.1-.72-.09-1.45-.19-2.17-.28-.5-.06-.98-.12-1.48-.18-2.98-.37-6.01-.71-9.09-1.03-.74-.07-1.49-.15-2.23-.22-4.89-.48-9.91-.92-15.05-1.29-4.12-.3-8.32-.54-12.61-.74-.7-.04-1.39-.07-2.1-.11-3.91-.17-7.88-.3-11.92-.38-.72-.01-1.44-.02-2.16-.05-4.7-.07-9.49-.09-14.38-.05-2.2.02-4.4.06-6.64.11-9.58.2-19.5.67-29.75,1.46-.79.06-1.58.12-2.36.19-.68.05-1.38.11-2.07.17-.35.02-.72.05-1.07.08,0,0-3.27.39-8.98,1.64-.8.17-1.65.35-2.55.57-.78.18-1.59.38-2.44.58-23.57,5.83-72.91,22.79-116.32,68.7l50.88,230.23s27.49-26.18,74.3-45.05c.66-.27,1.32-.53,1.98-.8,5.1-2,10.41-3.92,15.94-5.7.68-.22,1.37-.45,2.07-.66,10.82-3.4,22.43-6.28,34.76-8.36,2.66-.45,5.3-.85,7.91-1.22.73-.11,1.46-.21,2.2-.3,5.92-.8,11.72-1.41,17.41-1.84.77-.06,1.52-.12,2.27-.18,12.24-.84,23.92-.92,34.92-.48.83.04,1.65.07,2.47.12,7,.33,13.72.87,20.13,1.57.87.08,1.76.19,2.62.3h.01c27.69,3.19,49.3,9.04,62.27,12.3.86.22,1.68.42,2.47.61h.01c2.08.51,3.88.93,5.4,1.23,1.38.27,3.85.86,7.3,1.68,1.83.43,3.93.92,6.29,1.46.8.18,1.63.37,2.48.57h.01c2.44.54,5.1,1.13,7.99,1.76,18.29,3.93,45.14,8.96,75.95,11.69.72.06,1.44.12,2.16.19,4.81.4,9.72.74,14.7,1.03.13.01.27.01.4.02.58.04,1.16.07,1.75.09,3.58.18,7.21.33,10.86.44,22.53.66,46.28-.27,69.73-3.87.8-.12,1.61-.25,2.41-.38,3.99-.64,7.96-1.36,11.91-2.16.83-.17,1.66-.33,2.48-.52,5.48-1.16,10.92-2.48,16.32-3.99,5.88-1.64,11.7-3.49,17.43-5.58,15.16-5.51,29.69-12.63,43.13-21.71,5.48-3.68,10.77-7.71,15.84-12.09.22-.19.44-.38.66-.57,1.12-.97,2.22-1.95,3.32-2.96h.01c5.11-4.69,9.98-9.74,14.57-15.2.6-.71,1.19-1.42,1.78-2.14.61-.76,1.23-1.52,1.83-2.29l-3.75-18.67Zm-475.27-11.92l-1.31,9.67c-1.56,11.56-3.05,23.11-4.47,34.66-1.89.19-3.65.38-5.3.57-.73.08-1.45.15-2.15.24-9.99,1.18-16.71,2.41-28.09,5.17-9.85-47.45-15.11-70.98-25.5-118.47-3.11,22.69-5.41,40.65-7.47,58.05-.31,2.69-.63,5.37-.93,8.05-1.77,15.42-3.41,30.9-5.28,49.38-.18,1.78-.37,3.59-.54,5.43-.37,3.67-.74,7.47-1.13,11.42-14.51,6.36-21.94,10.22-37.99,19.82-17.41-69.95-26.4-110.56-37.51-176.52,14.65-13.29,22.05-18.69,36.96-27.52,6.39,40.43,10.14,62.04,17.83,104.24,5.49-48.8,8.49-73.02,15.4-119.92,1.41-.51,2.74-.97,4.01-1.42.85-.3,1.69-.57,2.49-.84,1.02-.34,2-.66,2.95-.96,3.71-1.18,7.06-2.11,10.47-2.92.79-.18,1.59-.37,2.4-.52,4.53-.98,9.34-1.77,15.34-2.61.5,2.51.98,4.95,1.45,7.32,7.6,38.17,11.94,59.54,19.84,99.35,4.47-43.8,7.04-65.09,12.54-108.7,1.26.02,2.48.05,3.65.07.72.02,1.43.05,2.11.06h.01c4.78.14,8.84.37,12.9.73.7.06,1.37.12,2.07.19,5.14.51,10.43,1.22,17.23,2.26-7.78,47.78-15.35,95.71-21.95,143.71Zm280.7,77.58c-2.61-12.7-3.99-19.19-6.81-32.17-2.99-.07-5.67-.13-8.18-.21-.73-.01-1.45-.04-2.16-.06-10.69-.32-18.69-.77-33.73-2.55-2.37,12.29-3.61,18.38-6.28,30.44-17.6-2.61-26.85-4.5-45.42-8.36h0c-.05-.11-.08-.21-.12-.3-.04.07-.06.17-.08.25-9.36-1.95-16.67-3.53-23.8-5.08-.8-.18-1.59-.34-2.4-.51-7.71-1.68-15.5-3.35-25.76-5.43-10.26-24.39-15.56-36.35-25.84-59.87-3.27-7.59-6.09-12.66-8.52-15.11-3.22-3.28-6.91-5.23-10.87-5.84-1.53-.25-2.3-.35-3.83-.59.68,28.82,1.05,43.21,1.45,73.08-5.99-.8-10.9-1.43-15.38-1.88-.84-.09-1.66-.18-2.47-.25h-.01c-7.82-.73-14.78-.97-24.88-.87,0-26.35.01-52.71.01-79.07v-55.23c0-6.19,0-12.39.01-18.57v-30.77c1.38.26,2.73.52,4.03.77.84.15,1.65.32,2.46.46.72.14,1.43.28,2.13.4,17.33,3.28,28.38,5.28,46.42,8.13,3.78.59,7.86,1.23,12.37,1.92,5.99.91,11.42,2.01,16.28,3.28.71.18,1.39.37,2.08.55,5.03,1.42,9.39,3.06,13.01,4.92.2.09.39.19.58.28.48.26.97.53,1.45.81,6.85,4,12.52,10.04,17,18.18,4.79,8.74,7.4,18.96,7.84,30.7.39,10.21-1,18.78-4.2,25.63-3.21,6.82-7.82,12-13.78,15.47-1.89,1.1-4.13,2-6.73,2.7-.67.19-1.36.35-2.08.52-2.14.47-4.49.84-7.05,1.09,3.01,1.74,5.57,3.38,7.72,4.96h.01c.86.65,1.66,1.29,2.38,1.89.79.66,1.49,1.32,2.13,1.96,1.75,1.81,4.33,5.42,7.75,10.91,3.42,5.5,5.73,9.69,6.91,12.56,9.72,22.81,14.6,34.46,23.67,57.63,18.22-59.97,32.29-121.22,47.91-181.89,7.28.17,12.9.21,17.92.15.73,0,1.45-.01,2.16-.02,4.99-.07,9.5-.25,14.68-.48.7-.04,1.41-.06,2.14-.11,1.29-.06,2.62-.12,4.01-.19,14.99,65.6,35.14,130.76,56,194.67-17.39,1.58-25.94,1.53-42.11,1.09Zm142.25-133.83c-2.59,7.37-6.21,14.2-10.84,20.18-4.77,6.14-10.6,11.39-17.49,15.42-.77.45-1.55.87-2.35,1.3-.77.4-1.53.78-2.31,1.16-8.75,4.13-13.11,5.87-21.75,8.89,1.32,8.49,2.47,15.82,3.48,22.57.33,2.15.64,4.24.93,6.29,1.62,10.92,2.93,20.74,4.29,32.28h0c.04.35.08.71.12,1.05.18,1.45.34,2.94.51,4.44.27,2.38.54,4.86.83,7.44-1.2.42-2.35.84-3.48,1.22-.67.24-1.33.46-1.98.67-.18.06-.35.12-.53.18-13.26,4.44-21.7,6.09-36.47,8.17-4.92-66.33-14.07-132.19-19.87-198.42,9.72-1.75,17.2-3.28,24.83-5.29,9.11-2.4,18.42-5.49,31.95-10.47,6.92-2.55,13.39-4.06,19.28-4.3.73-.04,1.44-.05,2.15-.05,4.79.06,9.16.99,13.06,2.9,9.16,4.51,15.49,14.06,18.99,31.56,3.61,17.98,2.49,36.21-3.33,52.81Z"/>
        </g>
        <g>
          <path class="cls-1" d="m371.12,513.78c-.04.07-.06.17-.08.25.07.02.13.04.2.05h0c-.05-.11-.08-.21-.12-.3Z"/>
          <path class="cls-1" d="m371.12,513.78c-.04.07-.06.17-.08.25.07.01.13.02.2.04-.05-.09-.08-.2-.12-.28Z"/>
        </g>
      </g>
    </g>
  </g>
</svg>